<svg width="742.41705" height="712.57302" xmlns="http://www.w3.org/2000/svg" data-name="Layer 1">
 <g>
  <title>Layer 1</title>
  <path id="aa38b2e7-2ea9-4025-adcf-83f87c0cfc4a" data-name="Path 968" d="m555.81497,164.89198l-3.9,0l0,-106.977a61.915,61.915 0 0 0 -61.915,-61.915l-226.65,0a61.915,61.915 0 0 0 -61.916,61.914l0,586.884a61.915,61.915 0 0 0 61.915,61.915l226.648,0a61.915,61.915 0 0 0 61.915,-61.915l0,-403.758l3.9,0l0.003,-76.148z" fill="#3f3d56"/>
  <path id="f27259c2-0089-4137-bfd8-cb22dff914f1" data-name="Path 969" d="m539.215,53.768l0,595.175a46.959,46.959 0 0 1 -46.942,46.952l-231.3,0a46.966,46.966 0 0 1 -46.973,-46.952l0,-595.175a46.965,46.965 0 0 1 46.971,-46.951l28.058,0a22.329,22.329 0 0 0 20.656,30.74l131.868,0a22.329,22.329 0 0 0 20.656,-30.74l30.055,0a46.959,46.959 0 0 1 46.951,46.942l0,0.009z" fill="#fff"/>
  <rect x="373.3014" y="742.53548" width="8" height="67" fill="#fff" id="svg_1" transform="rotate(-45 -297.055 482.193)"/>
  <rect x="790.85743" y="-213.14854" width="8" height="67" fill="#fff" id="svg_2" transform="rotate(45 120.501 -473.491)"/>
  <g stroke="null" id="svg_3">
   <path stroke="null" id="svg_4" d="m399.3815,276.221l-66.86096,0a5.75405,6.27575 0 0 0 -5.74703,6.26811l0,162.07247l-0.76627,0.25492l-16.40208,5.47832a3.06767,3.34582 0 0 1 -3.82744,-2.21892l-48.78866,-173.81477a3.06629,3.34431 0 0 1 2.03447,-4.17457l25.27557,-8.44105l73.27476,-24.46235l25.27537,-8.44105a3.06098,3.33851 0 0 1 3.82762,2.21473l12.47101,44.42838l0.23367,0.83576l-0.00002,0.00002z" fill="#f2f2f2"/>
   <path stroke="null" id="svg_5" d="m413.97135,275.38524l-15.03042,-53.54638a6.51089,7.10121 0 0 0 -8.13398,-4.71362l-35.53586,11.86345l-73.27081,24.46654l-35.53586,11.86762a6.51913,7.11022 0 0 0 -4.32188,8.87146l51.3709,182.99961a6.5235,7.11498 0 0 0 6.22988,5.02703a6.43257,7.01579 0 0 0 1.90408,-0.3134l24.35982,-8.13182l0.76627,-0.25907l0,-0.87336l-0.76627,0.2549l-24.58581,8.21123a5.75275,6.27434 0 0 1 -7.17614,-4.15785l-51.36697,-183.00378a5.73914,6.25949 0 0 1 3.81208,-7.82679l35.53586,-11.86762l73.27101,-24.46235l35.53586,-11.86762a5.80662,6.3331 0 0 1 1.68949,-0.2758a5.75264,6.27421 0 0 1 5.48662,4.43365l14.96139,53.30402l0.2376,0.83576l0.79696,0l-0.23383,-0.83576l0,-0.00005z" fill="#3f3d56"/>
   <path stroke="null" id="svg_6" d="m288.86012,270.22324a3.45424,3.76743 0 0 1 -3.29931,-2.66047l-4.93494,-17.58072a3.44778,3.76038 0 0 1 2.28779,-4.697l67.40856,-22.50828a3.45155,3.76448 0 0 1 4.30672,2.495l4.93494,17.58091a3.45217,3.76516 0 0 1 -2.28759,4.69721l-67.40876,22.50828a3.43903,3.75085 0 0 1 -1.00741,0.16506z" fill="#6c63ff"/>
   <circle stroke="null" id="svg_8" cx="713.70229" cy="410.03382" r="2.69714" fill="#fff"/>
   <path stroke="null" id="svg_9" d="m472.74838,460.08561l-129.49996,0a3.26042,3.55603 0 0 1 -3.25665,-3.55193l0,-169.23902a3.26031,3.5559 0 0 1 3.25665,-3.55193l129.49996,0a3.26042,3.55603 0 0 1 3.25665,3.55193l0,169.23902a3.26054,3.55617 0 0 1 -3.25665,3.55193z" fill="#e6e6e6"/>
   <path stroke="null" id="svg_10" d="m413.17064,275.38524l-80.65013,0a6.52255,7.11393 0 0 0 -6.51332,7.10385l0,170.40906l0.76627,-0.2549l0,-170.15416a5.75405,6.27575 0 0 1 5.74703,-6.26811l80.8877,0l-0.2376,-0.83576l0.00004,0.00002zm70.30546,0l-150.95557,0a6.52255,7.11393 0 0 0 -6.51332,7.10385l0,191.38634a6.52255,7.11393 0 0 0 6.51332,7.10385l150.95557,0a6.52255,7.11393 0 0 0 6.51332,-7.10385l0,-191.38634a6.52255,7.11393 0 0 0 -6.51332,-7.10385zm5.74703,198.49021a5.75405,6.27575 0 0 1 -5.74703,6.26811l-150.95557,0a5.75405,6.27575 0 0 1 -5.74703,-6.26811l0,-191.38634a5.75405,6.27575 0 0 1 5.74703,-6.26811l150.95557,0a5.75405,6.27575 0 0 1 5.74703,6.26811l0,191.38634z" fill="#3f3d56"/>
   <path stroke="null" id="svg_12" d="m443.24691,293.77171l-70.49701,0a3.45212,3.76511 0 0 1 -3.44822,-3.76087l0,-18.38647a3.45212,3.76511 0 0 1 3.44822,-3.76087l70.49701,0a3.45212,3.76511 0 0 1 3.44822,3.76087l0,18.38647a3.45212,3.76511 0 0 1 -3.44822,3.76087z" fill="#6c63ff"/>
   <circle stroke="null" id="svg_13" cx="806.98929" cy="443.55533" r="4.25928" fill="#6c63ff"/>
   <circle stroke="null" id="svg_14" cx="806.98929" cy="443.55533" r="2.5943" fill="#fff"/>
  </g>
 </g>

</svg>